<mxfile host="app.diagrams.net" modified="2021-03-01T14:51:48.011Z" agent="5.0 (Windows NT 10.0; Win64; x64) AppleWebKit/537.36 (KHTML, like Gecko) Chrome/88.0.4324.182 Safari/537.36 Edg/88.0.705.81" etag="Jptct_JVUI69PAPvdZ6W" version="14.4.3" type="github">
  <diagram id="Vwi1EXBxK2TPIhp4Lb0i" name="Page-1">
    <mxGraphModel dx="421" dy="380" grid="1" gridSize="10" guides="1" tooltips="1" connect="1" arrows="1" fold="1" page="1" pageScale="1" pageWidth="1654" pageHeight="1169" math="0" shadow="0">
      <root>
        <mxCell id="0" />
        <mxCell id="1" parent="0" />
        <mxCell id="dGaUdl5ERuG80IKLjUwU-427" value="" style="endArrow=none;html=1;" edge="1" parent="1">
          <mxGeometry width="50" height="50" relative="1" as="geometry">
            <mxPoint x="1340" y="210" as="sourcePoint" />
            <mxPoint x="1400" y="210" as="targetPoint" />
          </mxGeometry>
        </mxCell>
        <mxCell id="dGaUdl5ERuG80IKLjUwU-428" value="" style="endArrow=none;html=1;" edge="1" parent="1">
          <mxGeometry width="50" height="50" relative="1" as="geometry">
            <mxPoint x="1325" y="220" as="sourcePoint" />
            <mxPoint x="1385" y="220" as="targetPoint" />
          </mxGeometry>
        </mxCell>
        <mxCell id="dGaUdl5ERuG80IKLjUwU-429" value="" style="endArrow=none;html=1;exitX=1;exitY=0.25;exitDx=0;exitDy=0;jumpStyle=arc;rounded=0;" edge="1" parent="1" source="dGaUdl5ERuG80IKLjUwU-465">
          <mxGeometry width="50" height="50" relative="1" as="geometry">
            <mxPoint x="840" y="320" as="sourcePoint" />
            <mxPoint x="1341.3326710668102" y="210" as="targetPoint" />
            <Array as="points">
              <mxPoint x="860" y="450" />
              <mxPoint x="860" y="210" />
            </Array>
          </mxGeometry>
        </mxCell>
        <mxCell id="dGaUdl5ERuG80IKLjUwU-430" value="" style="endArrow=none;html=1;exitX=0.25;exitY=0;exitDx=0;exitDy=0;rounded=0;" edge="1" parent="1" source="dGaUdl5ERuG80IKLjUwU-468">
          <mxGeometry width="50" height="50" relative="1" as="geometry">
            <mxPoint x="975" y="440" as="sourcePoint" />
            <mxPoint x="1325" y="220" as="targetPoint" />
            <Array as="points">
              <mxPoint x="980" y="220" />
            </Array>
          </mxGeometry>
        </mxCell>
        <mxCell id="dGaUdl5ERuG80IKLjUwU-431" style="edgeStyle=orthogonalEdgeStyle;rounded=0;orthogonalLoop=1;jettySize=auto;html=1;exitX=0.5;exitY=1;exitDx=0;exitDy=0;entryX=0.5;entryY=1;entryDx=0;entryDy=0;" edge="1" parent="1" source="dGaUdl5ERuG80IKLjUwU-479" target="dGaUdl5ERuG80IKLjUwU-465">
          <mxGeometry relative="1" as="geometry">
            <Array as="points">
              <mxPoint x="1460" y="680" />
              <mxPoint x="800" y="680" />
            </Array>
          </mxGeometry>
        </mxCell>
        <mxCell id="dGaUdl5ERuG80IKLjUwU-432" value="LO" style="edgeLabel;html=1;align=center;verticalAlign=middle;resizable=0;points=[];" vertex="1" connectable="0" parent="dGaUdl5ERuG80IKLjUwU-431">
          <mxGeometry x="-0.9669" y="-1" relative="1" as="geometry">
            <mxPoint as="offset" />
          </mxGeometry>
        </mxCell>
        <mxCell id="dGaUdl5ERuG80IKLjUwU-433" style="edgeStyle=orthogonalEdgeStyle;rounded=0;orthogonalLoop=1;jettySize=auto;html=1;exitX=0.25;exitY=1;exitDx=0;exitDy=0;entryX=0.75;entryY=1;entryDx=0;entryDy=0;" edge="1" parent="1" source="dGaUdl5ERuG80IKLjUwU-479" target="dGaUdl5ERuG80IKLjUwU-465">
          <mxGeometry relative="1" as="geometry">
            <Array as="points">
              <mxPoint x="1445" y="670" />
              <mxPoint x="820" y="670" />
            </Array>
          </mxGeometry>
        </mxCell>
        <mxCell id="dGaUdl5ERuG80IKLjUwU-434" value="HI" style="edgeLabel;html=1;align=center;verticalAlign=middle;resizable=0;points=[];" vertex="1" connectable="0" parent="dGaUdl5ERuG80IKLjUwU-433">
          <mxGeometry x="-0.9623" relative="1" as="geometry">
            <mxPoint as="offset" />
          </mxGeometry>
        </mxCell>
        <mxCell id="dGaUdl5ERuG80IKLjUwU-435" style="edgeStyle=orthogonalEdgeStyle;rounded=0;orthogonalLoop=1;jettySize=auto;html=1;entryX=0.75;entryY=1;entryDx=0;entryDy=0;" edge="1" parent="1" source="dGaUdl5ERuG80IKLjUwU-485" target="dGaUdl5ERuG80IKLjUwU-442">
          <mxGeometry relative="1" as="geometry">
            <Array as="points">
              <mxPoint x="520" y="660" />
              <mxPoint x="340" y="660" />
            </Array>
            <mxPoint x="500" y="650" as="sourcePoint" />
          </mxGeometry>
        </mxCell>
        <mxCell id="dGaUdl5ERuG80IKLjUwU-436" style="edgeStyle=orthogonalEdgeStyle;rounded=0;orthogonalLoop=1;jettySize=auto;html=1;entryX=1;entryY=0.75;entryDx=0;entryDy=0;jumpStyle=arc;" edge="1" parent="1" source="dGaUdl5ERuG80IKLjUwU-485" target="dGaUdl5ERuG80IKLjUwU-472">
          <mxGeometry relative="1" as="geometry">
            <Array as="points">
              <mxPoint x="600" y="690" />
              <mxPoint x="1270" y="690" />
              <mxPoint x="1270" y="470" />
            </Array>
            <mxPoint x="620" y="670" as="sourcePoint" />
          </mxGeometry>
        </mxCell>
        <mxCell id="dGaUdl5ERuG80IKLjUwU-437" style="edgeStyle=orthogonalEdgeStyle;rounded=0;orthogonalLoop=1;jettySize=auto;html=1;jumpStyle=arc;" edge="1" parent="1" target="dGaUdl5ERuG80IKLjUwU-479">
          <mxGeometry relative="1" as="geometry">
            <Array as="points">
              <mxPoint x="1460" y="210" />
            </Array>
            <mxPoint x="1400" y="210" as="sourcePoint" />
          </mxGeometry>
        </mxCell>
        <mxCell id="dGaUdl5ERuG80IKLjUwU-438" style="edgeStyle=orthogonalEdgeStyle;rounded=0;orthogonalLoop=1;jettySize=auto;html=1;entryX=0.25;entryY=0;entryDx=0;entryDy=0;endFill=1;snapToPoint=0;" edge="1" parent="1" target="dGaUdl5ERuG80IKLjUwU-479">
          <mxGeometry relative="1" as="geometry">
            <Array as="points">
              <mxPoint x="1445" y="220" />
            </Array>
            <mxPoint x="1385" y="220" as="sourcePoint" />
          </mxGeometry>
        </mxCell>
        <mxCell id="dGaUdl5ERuG80IKLjUwU-439" value="PipelineController" style="rounded=0;whiteSpace=wrap;html=1;direction=south;" vertex="1" parent="1">
          <mxGeometry x="280" y="720" width="1210" height="40" as="geometry" />
        </mxCell>
        <mxCell id="dGaUdl5ERuG80IKLjUwU-440" style="edgeStyle=orthogonalEdgeStyle;rounded=0;orthogonalLoop=1;jettySize=auto;html=1;exitX=1;exitY=0.5;exitDx=0;exitDy=0;fillColor=#f8cecc;strokeColor=#b85450;" edge="1" parent="1" source="dGaUdl5ERuG80IKLjUwU-442" target="dGaUdl5ERuG80IKLjUwU-445">
          <mxGeometry relative="1" as="geometry" />
        </mxCell>
        <mxCell id="dGaUdl5ERuG80IKLjUwU-441" style="edgeStyle=orthogonalEdgeStyle;rounded=0;orthogonalLoop=1;jettySize=auto;html=1;entryX=0.25;entryY=1;entryDx=0;entryDy=0;" edge="1" parent="1" target="dGaUdl5ERuG80IKLjUwU-442">
          <mxGeometry relative="1" as="geometry">
            <mxPoint x="300" y="720" as="sourcePoint" />
          </mxGeometry>
        </mxCell>
        <mxCell id="dGaUdl5ERuG80IKLjUwU-442" value="PC" style="rounded=0;whiteSpace=wrap;html=1;fillColor=#dae8fc;strokeColor=#6c8ebf;" vertex="1" parent="1">
          <mxGeometry x="280" y="440" width="80" height="40" as="geometry" />
        </mxCell>
        <mxCell id="dGaUdl5ERuG80IKLjUwU-443" style="edgeStyle=orthogonalEdgeStyle;rounded=0;orthogonalLoop=1;jettySize=auto;html=1;exitX=1;exitY=0.5;exitDx=0;exitDy=0;entryX=0;entryY=0.5;entryDx=0;entryDy=0;fillColor=#f8cecc;strokeColor=#b85450;" edge="1" parent="1" source="dGaUdl5ERuG80IKLjUwU-445">
          <mxGeometry relative="1" as="geometry">
            <mxPoint x="480" y="460" as="targetPoint" />
          </mxGeometry>
        </mxCell>
        <mxCell id="dGaUdl5ERuG80IKLjUwU-444" style="edgeStyle=orthogonalEdgeStyle;rounded=0;orthogonalLoop=1;jettySize=auto;html=1;entryX=0.5;entryY=1;entryDx=0;entryDy=0;jumpStyle=arc;" edge="1" parent="1" target="dGaUdl5ERuG80IKLjUwU-445">
          <mxGeometry relative="1" as="geometry">
            <mxPoint x="420" y="720" as="sourcePoint" />
          </mxGeometry>
        </mxCell>
        <mxCell id="dGaUdl5ERuG80IKLjUwU-445" value="IF&lt;br&gt;|&lt;br&gt;ID" style="rounded=0;whiteSpace=wrap;html=1;fillColor=#dae8fc;strokeColor=#6c8ebf;" vertex="1" parent="1">
          <mxGeometry x="400" y="280" width="40" height="360" as="geometry" />
        </mxCell>
        <mxCell id="dGaUdl5ERuG80IKLjUwU-446" style="edgeStyle=orthogonalEdgeStyle;rounded=0;orthogonalLoop=1;jettySize=auto;html=1;exitX=1;exitY=0.25;exitDx=0;exitDy=0;entryX=0;entryY=0.5;entryDx=0;entryDy=0;" edge="1" parent="1" source="dGaUdl5ERuG80IKLjUwU-450" target="dGaUdl5ERuG80IKLjUwU-462">
          <mxGeometry relative="1" as="geometry" />
        </mxCell>
        <mxCell id="dGaUdl5ERuG80IKLjUwU-447" style="edgeStyle=orthogonalEdgeStyle;rounded=0;orthogonalLoop=1;jettySize=auto;html=1;exitX=1;exitY=0.5;exitDx=0;exitDy=0;entryX=-0.03;entryY=0.482;entryDx=0;entryDy=0;entryPerimeter=0;fillColor=#f8cecc;strokeColor=#b85450;" edge="1" parent="1" source="dGaUdl5ERuG80IKLjUwU-450" target="dGaUdl5ERuG80IKLjUwU-465">
          <mxGeometry relative="1" as="geometry" />
        </mxCell>
        <mxCell id="dGaUdl5ERuG80IKLjUwU-448" style="edgeStyle=orthogonalEdgeStyle;rounded=0;orthogonalLoop=1;jettySize=auto;html=1;entryX=0.5;entryY=1;entryDx=0;entryDy=0;jumpStyle=arc;" edge="1" parent="1" target="dGaUdl5ERuG80IKLjUwU-450">
          <mxGeometry relative="1" as="geometry">
            <mxPoint x="700" y="720" as="sourcePoint" />
          </mxGeometry>
        </mxCell>
        <mxCell id="dGaUdl5ERuG80IKLjUwU-449" style="edgeStyle=orthogonalEdgeStyle;rounded=0;orthogonalLoop=1;jettySize=auto;html=1;exitX=0.25;exitY=0;exitDx=0;exitDy=0;entryX=0.75;entryY=0;entryDx=0;entryDy=0;" edge="1" parent="1" source="dGaUdl5ERuG80IKLjUwU-450" target="dGaUdl5ERuG80IKLjUwU-485">
          <mxGeometry relative="1" as="geometry">
            <Array as="points">
              <mxPoint x="690" y="240" />
              <mxPoint x="600" y="240" />
            </Array>
            <mxPoint x="620" y="240" as="targetPoint" />
          </mxGeometry>
        </mxCell>
        <mxCell id="dGaUdl5ERuG80IKLjUwU-450" value="ID&lt;br&gt;|&lt;br&gt;EX" style="rounded=0;whiteSpace=wrap;html=1;fillColor=#dae8fc;strokeColor=#6c8ebf;" vertex="1" parent="1">
          <mxGeometry x="680" y="280" width="40" height="360" as="geometry" />
        </mxCell>
        <mxCell id="dGaUdl5ERuG80IKLjUwU-451" style="edgeStyle=orthogonalEdgeStyle;rounded=0;orthogonalLoop=1;jettySize=auto;html=1;exitX=1;exitY=0.5;exitDx=0;exitDy=0;entryX=0;entryY=0.5;entryDx=0;entryDy=0;fillColor=#f8cecc;strokeColor=#b85450;" edge="1" parent="1" source="dGaUdl5ERuG80IKLjUwU-453" target="dGaUdl5ERuG80IKLjUwU-468">
          <mxGeometry relative="1" as="geometry" />
        </mxCell>
        <mxCell id="dGaUdl5ERuG80IKLjUwU-452" style="edgeStyle=orthogonalEdgeStyle;rounded=0;orthogonalLoop=1;jettySize=auto;html=1;entryX=0.5;entryY=1;entryDx=0;entryDy=0;jumpStyle=arc;" edge="1" parent="1" target="dGaUdl5ERuG80IKLjUwU-453">
          <mxGeometry relative="1" as="geometry">
            <mxPoint x="900" y="720" as="sourcePoint" />
          </mxGeometry>
        </mxCell>
        <mxCell id="dGaUdl5ERuG80IKLjUwU-453" value="EX&lt;br&gt;|&lt;br&gt;MEM" style="rounded=0;whiteSpace=wrap;html=1;fillColor=#dae8fc;strokeColor=#6c8ebf;" vertex="1" parent="1">
          <mxGeometry x="880" y="280" width="40" height="360" as="geometry" />
        </mxCell>
        <mxCell id="dGaUdl5ERuG80IKLjUwU-454" style="edgeStyle=orthogonalEdgeStyle;rounded=0;orthogonalLoop=1;jettySize=auto;html=1;exitX=1;exitY=0.5;exitDx=0;exitDy=0;entryX=0;entryY=0.5;entryDx=0;entryDy=0;" edge="1" parent="1" source="dGaUdl5ERuG80IKLjUwU-458" target="dGaUdl5ERuG80IKLjUwU-472">
          <mxGeometry relative="1" as="geometry" />
        </mxCell>
        <mxCell id="dGaUdl5ERuG80IKLjUwU-455" style="edgeStyle=orthogonalEdgeStyle;rounded=0;orthogonalLoop=1;jettySize=auto;html=1;exitX=1;exitY=0.25;exitDx=0;exitDy=0;entryX=0;entryY=0.5;entryDx=0;entryDy=0;fillColor=#f8cecc;strokeColor=#b85450;" edge="1" parent="1" source="dGaUdl5ERuG80IKLjUwU-458" target="dGaUdl5ERuG80IKLjUwU-470">
          <mxGeometry relative="1" as="geometry" />
        </mxCell>
        <mxCell id="dGaUdl5ERuG80IKLjUwU-456" style="edgeStyle=orthogonalEdgeStyle;rounded=0;orthogonalLoop=1;jettySize=auto;html=1;exitX=1;exitY=0.75;exitDx=0;exitDy=0;entryX=0;entryY=0.5;entryDx=0;entryDy=0;" edge="1" parent="1" source="dGaUdl5ERuG80IKLjUwU-458" target="dGaUdl5ERuG80IKLjUwU-474">
          <mxGeometry relative="1" as="geometry" />
        </mxCell>
        <mxCell id="dGaUdl5ERuG80IKLjUwU-457" style="edgeStyle=orthogonalEdgeStyle;rounded=0;orthogonalLoop=1;jettySize=auto;html=1;entryX=0.5;entryY=1;entryDx=0;entryDy=0;jumpStyle=arc;" edge="1" parent="1" target="dGaUdl5ERuG80IKLjUwU-458">
          <mxGeometry relative="1" as="geometry">
            <mxPoint x="1100" y="720" as="sourcePoint" />
          </mxGeometry>
        </mxCell>
        <mxCell id="dGaUdl5ERuG80IKLjUwU-458" value="MEM&lt;br&gt;|&lt;br&gt;WB" style="rounded=0;whiteSpace=wrap;html=1;fillColor=#dae8fc;strokeColor=#6c8ebf;" vertex="1" parent="1">
          <mxGeometry x="1080" y="280" width="40" height="360" as="geometry" />
        </mxCell>
        <mxCell id="dGaUdl5ERuG80IKLjUwU-459" style="edgeStyle=orthogonalEdgeStyle;rounded=0;orthogonalLoop=1;jettySize=auto;html=1;exitX=1;exitY=0.5;exitDx=0;exitDy=0;entryX=0;entryY=0.5;entryDx=0;entryDy=0;fillColor=#f8cecc;strokeColor=#b85450;" edge="1" parent="1" target="dGaUdl5ERuG80IKLjUwU-450">
          <mxGeometry relative="1" as="geometry">
            <mxPoint x="640" y="460" as="sourcePoint" />
          </mxGeometry>
        </mxCell>
        <mxCell id="dGaUdl5ERuG80IKLjUwU-460" style="edgeStyle=orthogonalEdgeStyle;rounded=0;orthogonalLoop=1;jettySize=auto;html=1;exitX=0.5;exitY=1;exitDx=0;exitDy=0;" edge="1" parent="1" source="dGaUdl5ERuG80IKLjUwU-485">
          <mxGeometry relative="1" as="geometry">
            <mxPoint x="600" y="660" as="sourcePoint" />
            <mxPoint x="560" y="720" as="targetPoint" />
            <Array as="points">
              <mxPoint x="560" y="720" />
            </Array>
          </mxGeometry>
        </mxCell>
        <mxCell id="dGaUdl5ERuG80IKLjUwU-461" style="edgeStyle=orthogonalEdgeStyle;rounded=0;orthogonalLoop=1;jettySize=auto;html=1;exitX=0.5;exitY=1;exitDx=0;exitDy=0;entryX=0.5;entryY=0;entryDx=0;entryDy=0;" edge="1" parent="1" source="dGaUdl5ERuG80IKLjUwU-462" target="dGaUdl5ERuG80IKLjUwU-465">
          <mxGeometry relative="1" as="geometry" />
        </mxCell>
        <mxCell id="dGaUdl5ERuG80IKLjUwU-462" value="MULT&lt;br&gt;DIV" style="rounded=0;whiteSpace=wrap;html=1;" vertex="1" parent="1">
          <mxGeometry x="760" y="350" width="80" height="40" as="geometry" />
        </mxCell>
        <mxCell id="dGaUdl5ERuG80IKLjUwU-463" style="edgeStyle=orthogonalEdgeStyle;rounded=0;orthogonalLoop=1;jettySize=auto;html=1;exitX=1;exitY=0.5;exitDx=0;exitDy=0;entryX=0;entryY=0.5;entryDx=0;entryDy=0;fillColor=#f8cecc;strokeColor=#b85450;" edge="1" parent="1" source="dGaUdl5ERuG80IKLjUwU-465" target="dGaUdl5ERuG80IKLjUwU-453">
          <mxGeometry relative="1" as="geometry" />
        </mxCell>
        <mxCell id="dGaUdl5ERuG80IKLjUwU-464" style="edgeStyle=orthogonalEdgeStyle;rounded=0;orthogonalLoop=1;jettySize=auto;html=1;exitX=0.25;exitY=1;exitDx=0;exitDy=0;jumpStyle=arc;" edge="1" parent="1" source="dGaUdl5ERuG80IKLjUwU-465">
          <mxGeometry relative="1" as="geometry">
            <mxPoint x="780" y="720" as="targetPoint" />
          </mxGeometry>
        </mxCell>
        <mxCell id="dGaUdl5ERuG80IKLjUwU-465" value="ALU" style="rounded=0;whiteSpace=wrap;html=1;fillColor=#dae8fc;strokeColor=#6c8ebf;" vertex="1" parent="1">
          <mxGeometry x="760" y="440" width="80" height="40" as="geometry" />
        </mxCell>
        <mxCell id="dGaUdl5ERuG80IKLjUwU-466" style="edgeStyle=orthogonalEdgeStyle;rounded=0;orthogonalLoop=1;jettySize=auto;html=1;exitX=1;exitY=0.5;exitDx=0;exitDy=0;entryX=0;entryY=0.5;entryDx=0;entryDy=0;fillColor=#f8cecc;strokeColor=#b85450;" edge="1" parent="1" source="dGaUdl5ERuG80IKLjUwU-468" target="dGaUdl5ERuG80IKLjUwU-458">
          <mxGeometry relative="1" as="geometry" />
        </mxCell>
        <mxCell id="dGaUdl5ERuG80IKLjUwU-467" style="edgeStyle=orthogonalEdgeStyle;rounded=0;orthogonalLoop=1;jettySize=auto;html=1;exitX=0.5;exitY=1;exitDx=0;exitDy=0;jumpStyle=arc;" edge="1" parent="1" source="dGaUdl5ERuG80IKLjUwU-468">
          <mxGeometry relative="1" as="geometry">
            <mxPoint x="1000" y="720" as="targetPoint" />
          </mxGeometry>
        </mxCell>
        <mxCell id="dGaUdl5ERuG80IKLjUwU-468" value="MEM" style="rounded=0;whiteSpace=wrap;html=1;fillColor=#dae8fc;strokeColor=#6c8ebf;" vertex="1" parent="1">
          <mxGeometry x="960" y="440" width="80" height="40" as="geometry" />
        </mxCell>
        <mxCell id="dGaUdl5ERuG80IKLjUwU-469" style="edgeStyle=orthogonalEdgeStyle;rounded=0;orthogonalLoop=1;jettySize=auto;html=1;exitX=1;exitY=0.5;exitDx=0;exitDy=0;entryX=0;entryY=0.5;entryDx=0;entryDy=0;fillColor=#f8cecc;strokeColor=#b85450;" edge="1" parent="1" source="dGaUdl5ERuG80IKLjUwU-470" target="dGaUdl5ERuG80IKLjUwU-476">
          <mxGeometry relative="1" as="geometry" />
        </mxCell>
        <mxCell id="dGaUdl5ERuG80IKLjUwU-470" value="RegFIle" style="rounded=0;whiteSpace=wrap;html=1;fillColor=#dae8fc;strokeColor=#6c8ebf;" vertex="1" parent="1">
          <mxGeometry x="1160" y="350" width="80" height="40" as="geometry" />
        </mxCell>
        <mxCell id="dGaUdl5ERuG80IKLjUwU-471" style="edgeStyle=orthogonalEdgeStyle;rounded=0;orthogonalLoop=1;jettySize=auto;html=1;exitX=1;exitY=0.5;exitDx=0;exitDy=0;entryX=0;entryY=0.5;entryDx=0;entryDy=0;" edge="1" parent="1" source="dGaUdl5ERuG80IKLjUwU-472" target="dGaUdl5ERuG80IKLjUwU-478">
          <mxGeometry relative="1" as="geometry" />
        </mxCell>
        <mxCell id="dGaUdl5ERuG80IKLjUwU-472" value="CP0" style="rounded=0;whiteSpace=wrap;html=1;" vertex="1" parent="1">
          <mxGeometry x="1160" y="440" width="80" height="40" as="geometry" />
        </mxCell>
        <mxCell id="dGaUdl5ERuG80IKLjUwU-473" style="edgeStyle=orthogonalEdgeStyle;rounded=0;orthogonalLoop=1;jettySize=auto;html=1;exitX=1;exitY=0.5;exitDx=0;exitDy=0;entryX=0;entryY=0.5;entryDx=0;entryDy=0;" edge="1" parent="1" source="dGaUdl5ERuG80IKLjUwU-474" target="dGaUdl5ERuG80IKLjUwU-479">
          <mxGeometry relative="1" as="geometry" />
        </mxCell>
        <mxCell id="dGaUdl5ERuG80IKLjUwU-474" value="HILO" style="rounded=0;whiteSpace=wrap;html=1;" vertex="1" parent="1">
          <mxGeometry x="1160" y="530" width="80" height="40" as="geometry" />
        </mxCell>
        <mxCell id="dGaUdl5ERuG80IKLjUwU-475" style="edgeStyle=orthogonalEdgeStyle;rounded=0;orthogonalLoop=1;jettySize=auto;html=1;exitX=0.25;exitY=0;exitDx=0;exitDy=0;entryX=0.25;entryY=0;entryDx=0;entryDy=0;" edge="1" parent="1" target="dGaUdl5ERuG80IKLjUwU-476">
          <mxGeometry relative="1" as="geometry">
            <mxPoint x="1325" y="220" as="sourcePoint" />
          </mxGeometry>
        </mxCell>
        <mxCell id="dGaUdl5ERuG80IKLjUwU-476" value="RegRead&lt;br&gt;Proxy" style="rounded=0;whiteSpace=wrap;html=1;fillColor=#dae8fc;strokeColor=#6c8ebf;" vertex="1" parent="1">
          <mxGeometry x="1310" y="330" width="60" height="80" as="geometry" />
        </mxCell>
        <mxCell id="dGaUdl5ERuG80IKLjUwU-477" style="edgeStyle=orthogonalEdgeStyle;rounded=0;orthogonalLoop=1;jettySize=auto;html=1;exitX=0.25;exitY=0;exitDx=0;exitDy=0;entryX=0.25;entryY=0;entryDx=0;entryDy=0;" edge="1" parent="1" target="dGaUdl5ERuG80IKLjUwU-478">
          <mxGeometry relative="1" as="geometry">
            <mxPoint x="1385" y="220" as="sourcePoint" />
          </mxGeometry>
        </mxCell>
        <mxCell id="dGaUdl5ERuG80IKLjUwU-478" value="CP0Read&lt;br&gt;Proxy" style="rounded=0;whiteSpace=wrap;html=1;" vertex="1" parent="1">
          <mxGeometry x="1370" y="420" width="60" height="80" as="geometry" />
        </mxCell>
        <mxCell id="dGaUdl5ERuG80IKLjUwU-479" value="HILORead&lt;br&gt;Proxy" style="rounded=0;whiteSpace=wrap;html=1;" vertex="1" parent="1">
          <mxGeometry x="1430" y="510" width="60" height="80" as="geometry" />
        </mxCell>
        <mxCell id="dGaUdl5ERuG80IKLjUwU-480" style="edgeStyle=orthogonalEdgeStyle;rounded=0;orthogonalLoop=1;jettySize=auto;html=1;exitX=0.5;exitY=0;exitDx=0;exitDy=0;entryX=0.5;entryY=0;entryDx=0;entryDy=0;jumpStyle=arc;" edge="1" parent="1" target="dGaUdl5ERuG80IKLjUwU-476">
          <mxGeometry relative="1" as="geometry">
            <mxPoint x="1340" y="210" as="sourcePoint" />
          </mxGeometry>
        </mxCell>
        <mxCell id="dGaUdl5ERuG80IKLjUwU-481" style="edgeStyle=orthogonalEdgeStyle;rounded=0;orthogonalLoop=1;jettySize=auto;html=1;exitX=0.5;exitY=0;exitDx=0;exitDy=0;entryX=0.5;entryY=0;entryDx=0;entryDy=0;jumpStyle=arc;" edge="1" parent="1" target="dGaUdl5ERuG80IKLjUwU-478">
          <mxGeometry relative="1" as="geometry">
            <mxPoint x="1400" y="210" as="sourcePoint" />
          </mxGeometry>
        </mxCell>
        <mxCell id="dGaUdl5ERuG80IKLjUwU-482" style="edgeStyle=orthogonalEdgeStyle;rounded=0;orthogonalLoop=1;jettySize=auto;html=1;exitX=0.75;exitY=0;exitDx=0;exitDy=0;jumpStyle=arc;entryX=0.5;entryY=0;entryDx=0;entryDy=0;fillColor=#f8cecc;strokeColor=#b85450;" edge="1" parent="1" source="dGaUdl5ERuG80IKLjUwU-476" target="dGaUdl5ERuG80IKLjUwU-485">
          <mxGeometry relative="1" as="geometry">
            <Array as="points">
              <mxPoint x="1355" y="200" />
              <mxPoint x="560" y="200" />
            </Array>
            <mxPoint x="600" y="200" as="targetPoint" />
          </mxGeometry>
        </mxCell>
        <mxCell id="dGaUdl5ERuG80IKLjUwU-483" style="edgeStyle=orthogonalEdgeStyle;rounded=0;orthogonalLoop=1;jettySize=auto;html=1;entryX=0.75;entryY=0;entryDx=0;entryDy=0;jumpStyle=arc;" edge="1" parent="1" target="dGaUdl5ERuG80IKLjUwU-450">
          <mxGeometry relative="1" as="geometry">
            <Array as="points">
              <mxPoint x="710" y="190" />
            </Array>
            <mxPoint x="1000" y="190" as="sourcePoint" />
          </mxGeometry>
        </mxCell>
        <mxCell id="dGaUdl5ERuG80IKLjUwU-484" style="edgeStyle=orthogonalEdgeStyle;rounded=0;orthogonalLoop=1;jettySize=auto;html=1;entryX=0.5;entryY=0;entryDx=0;entryDy=0;jumpStyle=arc;" edge="1" parent="1" target="dGaUdl5ERuG80IKLjUwU-468">
          <mxGeometry relative="1" as="geometry">
            <mxPoint x="1000" y="190" as="sourcePoint" />
          </mxGeometry>
        </mxCell>
        <mxCell id="dGaUdl5ERuG80IKLjUwU-485" value="&lt;blockquote style=&quot;margin: 0 0 0 40px ; border: none ; padding: 0px&quot;&gt;&lt;/blockquote&gt;" style="rounded=0;whiteSpace=wrap;html=1;align=left;" vertex="1" parent="1">
          <mxGeometry x="480" y="270" width="160" height="360" as="geometry" />
        </mxCell>
        <mxCell id="dGaUdl5ERuG80IKLjUwU-486" value="OperandGen" style="rounded=0;whiteSpace=wrap;html=1;fillColor=#dae8fc;strokeColor=#6c8ebf;" vertex="1" parent="1">
          <mxGeometry x="520" y="280" width="80" height="40" as="geometry" />
        </mxCell>
        <mxCell id="dGaUdl5ERuG80IKLjUwU-487" value="CP0Gen" style="rounded=0;whiteSpace=wrap;html=1;" vertex="1" parent="1">
          <mxGeometry x="520" y="480" width="80" height="40" as="geometry" />
        </mxCell>
        <mxCell id="dGaUdl5ERuG80IKLjUwU-488" value="ExceptionGen" style="rounded=0;whiteSpace=wrap;html=1;" vertex="1" parent="1">
          <mxGeometry x="520" y="530" width="80" height="40" as="geometry" />
        </mxCell>
        <mxCell id="dGaUdl5ERuG80IKLjUwU-489" value="FunctGen" style="rounded=0;whiteSpace=wrap;html=1;fillColor=#dae8fc;strokeColor=#6c8ebf;" vertex="1" parent="1">
          <mxGeometry x="520" y="380" width="80" height="40" as="geometry" />
        </mxCell>
        <mxCell id="dGaUdl5ERuG80IKLjUwU-490" value="MemGen" style="rounded=0;whiteSpace=wrap;html=1;" vertex="1" parent="1">
          <mxGeometry x="520" y="430" width="80" height="40" as="geometry" />
        </mxCell>
        <mxCell id="dGaUdl5ERuG80IKLjUwU-491" value="BranchGen" style="rounded=0;whiteSpace=wrap;html=1;" vertex="1" parent="1">
          <mxGeometry x="520" y="580" width="80" height="40" as="geometry" />
        </mxCell>
        <mxCell id="dGaUdl5ERuG80IKLjUwU-492" value="RegGen" style="rounded=0;whiteSpace=wrap;html=1;fillColor=#dae8fc;strokeColor=#6c8ebf;" vertex="1" parent="1">
          <mxGeometry x="520" y="330" width="80" height="40" as="geometry" />
        </mxCell>
        <mxCell id="dGaUdl5ERuG80IKLjUwU-493" style="edgeStyle=orthogonalEdgeStyle;rounded=0;orthogonalLoop=1;jettySize=auto;html=1;exitX=0.5;exitY=1;exitDx=0;exitDy=0;" edge="1" parent="1" source="dGaUdl5ERuG80IKLjUwU-485" target="dGaUdl5ERuG80IKLjUwU-485">
          <mxGeometry x="480" y="270" as="geometry" />
        </mxCell>
        <mxCell id="dGaUdl5ERuG80IKLjUwU-494" value="" style="endArrow=none;html=1;entryX=0.75;entryY=0;entryDx=0;entryDy=0;rounded=0;jumpStyle=arc;" edge="1" parent="1" target="dGaUdl5ERuG80IKLjUwU-478">
          <mxGeometry width="50" height="50" relative="1" as="geometry">
            <mxPoint x="1000" y="190" as="sourcePoint" />
            <mxPoint x="1220" y="410" as="targetPoint" />
            <Array as="points">
              <mxPoint x="1415" y="190" />
            </Array>
          </mxGeometry>
        </mxCell>
        <mxCell id="dGaUdl5ERuG80IKLjUwU-495" style="edgeStyle=orthogonalEdgeStyle;rounded=0;jumpStyle=arc;orthogonalLoop=1;jettySize=auto;html=1;exitX=0.5;exitY=0;exitDx=0;exitDy=0;endFill=1;entryX=0.5;entryY=0;entryDx=0;entryDy=0;" edge="1" parent="1" target="dGaUdl5ERuG80IKLjUwU-472">
          <mxGeometry relative="1" as="geometry">
            <mxPoint x="517.5845336914062" y="270" as="sourcePoint" />
            <Array as="points">
              <mxPoint x="518" y="170" />
              <mxPoint x="1290" y="170" />
              <mxPoint x="1290" y="420" />
              <mxPoint x="1200" y="420" />
            </Array>
          </mxGeometry>
        </mxCell>
        <mxCell id="dGaUdl5ERuG80IKLjUwU-496" style="edgeStyle=orthogonalEdgeStyle;rounded=0;orthogonalLoop=1;jettySize=auto;html=1;exitX=0.75;exitY=0;exitDx=0;exitDy=0;entryX=1;entryY=0.25;entryDx=0;entryDy=0;jumpStyle=arc;" edge="1" parent="1" source="dGaUdl5ERuG80IKLjUwU-468" target="dGaUdl5ERuG80IKLjUwU-472">
          <mxGeometry relative="1" as="geometry">
            <Array as="points">
              <mxPoint x="1020" y="250" />
              <mxPoint x="1270" y="250" />
              <mxPoint x="1270" y="450" />
            </Array>
          </mxGeometry>
        </mxCell>
        <mxCell id="dGaUdl5ERuG80IKLjUwU-497" style="edgeStyle=orthogonalEdgeStyle;rounded=0;jumpStyle=arc;orthogonalLoop=1;jettySize=auto;html=1;entryX=0.5;entryY=0;entryDx=0;entryDy=0;endFill=1;fillColor=#f8cecc;strokeColor=#b85450;" edge="1" parent="1" target="dGaUdl5ERuG80IKLjUwU-470">
          <mxGeometry relative="1" as="geometry">
            <mxPoint x="530" y="270" as="sourcePoint" />
            <Array as="points">
              <mxPoint x="530" y="270" />
              <mxPoint x="530" y="180" />
              <mxPoint x="1200" y="180" />
            </Array>
          </mxGeometry>
        </mxCell>
      </root>
    </mxGraphModel>
  </diagram>
</mxfile>
